<?xml version="1.0" standalone="no"?>
<!DOCTYPE svg PUBLIC "-//W3C//DTD SVG 20010904//EN"
 "http://www.w3.org/TR/2001/REC-SVG-20010904/DTD/svg10.dtd">
<svg version="1.0" xmlns="http://www.w3.org/2000/svg"
 width="668.000000pt" height="668.000000pt" viewBox="0 0 668.000000 668.000000"
 preserveAspectRatio="xMidYMid meet">
<metadata>
Created by potrace 1.14, written by Peter Selinger 2001-2017
</metadata>
<g transform="translate(0.000000,668.000000) scale(0.100000,-0.100000)"
fill="#000000" stroke="none">
<path d="M3290 6659 c-14 -10 -277 -196 -585 -413 -308 -217 -578 -407 -600
-424 -22 -16 -454 -320 -960 -677 -506 -356 -936 -660 -955 -675 -19 -15 -53
-39 -75 -53 -79 -52 -76 -46 -58 -113 8 -32 17 -66 18 -74 2 -8 22 -82 45
-165 23 -82 43 -159 45 -169 3 -10 16 -58 29 -105 14 -47 28 -101 31 -120 3
-19 8 -38 11 -42 3 -5 16 -53 30 -106 14 -54 38 -145 54 -203 55 -202 111
-409 115 -427 4 -18 127 -478 206 -768 22 -82 42 -157 44 -165 11 -46 54 -204
140 -525 53 -198 110 -407 125 -465 45 -171 230 -861 246 -917 l15 -53 2139 0
c2028 0 2139 1 2144 18 7 23 86 313 91 332 1 8 21 83 44 165 42 157 45 168
111 410 22 83 42 157 44 165 2 8 30 110 61 225 31 116 69 257 85 315 15 58 44
166 64 240 141 522 172 639 202 750 19 69 36 134 39 145 2 11 34 128 70 260
97 358 119 444 114 448 -26 24 -291 209 -293 206 -2 -2 -27 -92 -56 -199 -29
-107 -70 -260 -91 -340 -22 -80 -61 -228 -88 -330 -27 -102 -75 -279 -106
-395 -30 -115 -62 -232 -70 -260 -14 -46 -272 -1012 -280 -1045 -4 -17 -5 -21
-110 -410 -40 -151 -78 -293 -84 -315 l-10 -40 -1880 0 c-1034 0 -1882 2
-1884 5 -3 3 -66 237 -142 520 -75 283 -158 596 -185 695 -27 99 -80 300 -119
447 -39 146 -78 293 -87 325 -8 32 -27 101 -40 153 -14 52 -43 158 -63 235
-21 77 -62 230 -91 340 -29 110 -76 288 -106 395 -29 107 -55 206 -58 220 -2
14 -34 134 -70 267 -36 133 -66 247 -66 255 0 7 76 66 168 131 389 275 760
537 797 565 33 24 408 289 578 409 27 19 310 220 630 447 689 488 701 496 710
496 4 0 51 -32 105 -70 53 -39 106 -77 117 -85 11 -7 79 -55 150 -106 72 -50
166 -117 210 -149 44 -31 103 -73 130 -92 133 -93 643 -454 673 -476 9 -7 132
-94 272 -193 140 -99 264 -187 275 -195 11 -8 56 -40 100 -71 44 -31 103 -72
130 -92 28 -19 68 -47 90 -63 22 -15 81 -57 130 -92 50 -36 126 -90 170 -121
44 -31 136 -96 205 -145 69 -49 162 -115 208 -147 45 -32 121 -86 169 -121 48
-34 92 -61 97 -59 9 3 37 98 51 171 3 16 15 61 25 100 11 39 20 73 20 77 0 3
-19 19 -42 35 -24 16 -104 72 -178 125 -74 52 -157 111 -185 131 -27 19 -106
75 -175 123 -234 166 -275 195 -360 255 -47 32 -94 66 -105 74 -17 13 -301
213 -560 396 -44 31 -134 95 -200 141 -66 47 -142 101 -170 120 -27 19 -52 36
-55 39 -5 5 -141 103 -196 140 -25 17 -44 30 -263 186 -84 60 -163 116 -176
124 -23 16 -114 79 -441 312 -105 75 -200 140 -210 146 -14 7 -25 5 -44 -9z"/>
<path d="M3290 5644 c-52 -35 -41 -28 -385 -271 -176 -124 -349 -247 -385
-272 -402 -281 -1538 -1085 -1547 -1094 -9 -9 -6 -32 12 -97 24 -88 35 -120
41 -120 1 0 81 55 176 122 95 68 192 137 216 153 24 17 78 55 121 85 43 30
253 178 467 329 214 151 407 287 429 303 22 16 110 78 195 138 85 60 234 165
330 233 96 68 218 154 272 191 l96 66 69 -50 c59 -44 185 -134 278 -200 17
-12 255 -182 530 -378 275 -196 512 -365 525 -374 14 -9 63 -45 110 -79 47
-34 112 -81 145 -104 58 -41 427 -305 432 -309 2 -2 -10 -50 -25 -107 -16 -57
-41 -149 -56 -204 -14 -55 -71 -269 -126 -475 -56 -206 -114 -424 -130 -485
-16 -60 -36 -137 -45 -170 -18 -66 -65 -241 -70 -265 -2 -8 -31 -114 -64 -235
-67 -249 -227 -847 -245 -915 l-12 -45 -1327 -3 -1326 -2 -11 37 c-10 36 -152
565 -163 608 -8 31 -186 690 -212 785 -12 47 -76 283 -141 525 -65 242 -121
444 -125 449 -9 11 -199 -52 -199 -66 0 -11 58 -235 91 -353 11 -38 22 -77 24
-85 4 -19 54 -207 100 -380 20 -74 38 -142 40 -150 2 -8 38 -143 80 -300 42
-157 79 -292 80 -300 8 -34 227 -849 252 -938 l14 -52 1494 0 1494 0 14 52
c30 104 58 209 62 226 2 9 29 109 60 222 31 113 58 216 61 230 3 14 16 63 29
110 13 47 47 171 74 275 28 105 57 213 65 240 8 28 60 221 116 430 56 209 114
427 130 485 16 58 38 139 49 180 10 41 54 203 96 360 89 330 81 302 97 363 10
43 10 49 -8 61 -10 8 -80 57 -154 110 -74 52 -142 100 -150 106 -8 5 -85 59
-170 120 -85 60 -163 115 -174 122 -10 7 -51 36 -90 64 -39 28 -150 106 -246
174 -96 68 -254 179 -350 247 -179 127 -518 366 -556 393 -199 138 -250 175
-254 180 -3 4 -25 20 -50 35 -25 15 -47 31 -50 34 -5 6 -56 42 -75 53 -5 3
-26 -5 -45 -18z"/>
<path d="M2784 3031 l0 -1681 167 0 166 0 1 643 c0 353 1 649 1 657 1 13 32
15 209 16 219 1 325 15 418 54 139 60 221 172 253 346 29 152 33 1022 6 1212
-30 212 -127 337 -310 395 -90 29 -106 30 -510 34 l-401 4 0 -1680z m781 1356
c119 -53 126 -94 127 -707 0 -309 -6 -491 -17 -549 -10 -52 -46 -108 -83 -128
-57 -32 -92 -36 -289 -37 l-183 -2 -1 31 c-1 40 -1 1398 0 1408 1 5 92 7 204
5 166 -3 209 -7 242 -21z"/>
</g>
</svg>
