<svg width="1302" height="1302" viewBox="0 0 1302 1302" fill="none" xmlns="http://www.w3.org/2000/svg">
<g clip-path="url(#clip0_555_58)">
<rect width="1302" height="1302" fill="#E0E0E0"/>
<rect x="0.5" y="0.5" width="1336" height="92" stroke="black" stroke-opacity="0.09"/>
<rect x="0.5" y="93.5" width="1336" height="92" stroke="black" stroke-opacity="0.09"/>
<rect x="0.5" y="186.5" width="1336" height="92" stroke="black" stroke-opacity="0.09"/>
<rect x="0.5" y="279.5" width="1336" height="92" stroke="black" stroke-opacity="0.09"/>
<rect x="0.5" y="372.5" width="1336" height="92" stroke="black" stroke-opacity="0.09"/>
<rect x="0.5" y="465.5" width="1336" height="92" stroke="black" stroke-opacity="0.09"/>
<rect x="0.5" y="558.5" width="1336" height="92" stroke="black" stroke-opacity="0.09"/>
<rect x="0.5" y="651.5" width="1336" height="92" stroke="black" stroke-opacity="0.09"/>
<rect x="0.5" y="744.5" width="1336" height="92" stroke="black" stroke-opacity="0.09"/>
<rect x="0.5" y="837.5" width="1336" height="92" stroke="black" stroke-opacity="0.09"/>
<rect x="0.5" y="930.5" width="1336" height="92" stroke="black" stroke-opacity="0.09"/>
<rect x="0.5" y="1023.5" width="1336" height="92" stroke="black" stroke-opacity="0.09"/>
<rect x="0.5" y="1116.5" width="1336" height="92" stroke="black" stroke-opacity="0.09"/>
<rect x="0.5" y="1209.5" width="1336" height="92" stroke="black" stroke-opacity="0.09"/>
<rect x="92.5" y="0.5" width="1301" height="91.9999" transform="rotate(90 92.5 0.5)" stroke="black" stroke-opacity="0.09"/>
<rect x="185.5" y="0.5" width="1301" height="91.9999" transform="rotate(90 185.5 0.5)" stroke="black" stroke-opacity="0.09"/>
<rect x="278.5" y="0.5" width="1301" height="91.9999" transform="rotate(90 278.5 0.5)" stroke="black" stroke-opacity="0.09"/>
<rect x="371.5" y="0.5" width="1301" height="91.9999" transform="rotate(90 371.5 0.5)" stroke="black" stroke-opacity="0.09"/>
<rect x="464.5" y="0.5" width="1301" height="91.9999" transform="rotate(90 464.5 0.5)" stroke="black" stroke-opacity="0.09"/>
<rect x="557.5" y="0.5" width="1301" height="91.9999" transform="rotate(90 557.5 0.5)" stroke="black" stroke-opacity="0.09"/>
<rect x="650.5" y="0.5" width="1301" height="91.9999" transform="rotate(90 650.5 0.5)" stroke="black" stroke-opacity="0.09"/>
<rect x="743.5" y="0.5" width="1301" height="91.9999" transform="rotate(90 743.5 0.5)" stroke="black" stroke-opacity="0.09"/>
<rect x="836.5" y="0.5" width="1301" height="91.9999" transform="rotate(90 836.5 0.5)" stroke="black" stroke-opacity="0.09"/>
<rect x="929.5" y="0.5" width="1301" height="91.9999" transform="rotate(90 929.5 0.5)" stroke="black" stroke-opacity="0.09"/>
<rect x="1022.5" y="0.5" width="1301" height="91.9999" transform="rotate(90 1022.5 0.5)" stroke="black" stroke-opacity="0.09"/>
<rect x="1115.5" y="0.5" width="1301" height="91.9999" transform="rotate(90 1115.5 0.5)" stroke="black" stroke-opacity="0.09"/>
<rect x="1208.5" y="0.5" width="1301" height="91.9999" transform="rotate(90 1208.5 0.5)" stroke="black" stroke-opacity="0.09"/>
<rect x="1301.5" y="0.5" width="1301" height="91.9999" transform="rotate(90 1301.5 0.5)" stroke="black" stroke-opacity="0.09"/>
</g>
<defs>
<clipPath id="clip0_555_58">
<rect width="1302" height="1302" fill="white"/>
</clipPath>
</defs>
</svg>
