<svg width="1337" height="1324" viewBox="0 0 1337 1324" fill="none" xmlns="http://www.w3.org/2000/svg">
<rect width="1337" height="1324" fill="white"/>
<path d="M455 851H883L976.5 504L946.5 482.5L857 816.5H480.5L377.5 430L666 225.5L990 455L999 418.5L666 183L338 414.5L455 851Z" fill="#F2922E"/>
<path d="M430 451L436 472.5L666.5 310L876 459.5L798.234 750H533L468 508.5L447.5 515.5L516 772H815L901.5 450L666.5 284L430 451Z" fill="#F2922E"/>
<path d="M612.41 716V380H674.78C695.78 380 710.97 384.2 720.35 392.6C729.87 401 734.91 414.93 735.47 434.39C736.17 453.01 736.52 469.74 736.52 484.58C736.52 499.42 736.17 514.68 735.47 530.36C734.77 549.68 729.66 563.54 720.14 571.94C710.62 580.34 695.36 584.54 674.36 584.54H645.8V716H612.41ZM645.8 554.51H674.36C684.58 554.51 691.65 552.76 695.57 549.26C699.63 545.76 701.87 539.81 702.29 531.41C702.85 520.63 703.2 510.27 703.34 500.33C703.48 490.25 703.48 479.82 703.34 469.04C703.2 458.12 702.85 446.15 702.29 433.13C702.01 424.59 699.84 418.64 695.78 415.28C691.72 411.78 684.72 410.03 674.78 410.03H645.8V554.51Z" fill="#F2922E"/>
<path d="M236.125 1088V888H273.25C285.75 888 294.792 890.5 300.375 895.5C306.042 900.5 309.042 908.792 309.375 920.375C309.792 931.458 310 941.417 310 950.25C310 959.083 309.792 968.167 309.375 977.5C308.958 989 305.917 997.25 300.25 1002.25C294.583 1007.25 285.5 1009.75 273 1009.75H256V1088H236.125ZM256 991.875H273C279.083 991.875 283.292 990.833 285.625 988.75C288.042 986.667 289.375 983.125 289.625 978.125C289.958 971.708 290.167 965.542 290.25 959.625C290.333 953.625 290.333 947.417 290.25 941C290.167 934.5 289.958 927.375 289.625 919.625C289.458 914.542 288.167 911 285.75 909C283.333 906.917 279.167 905.875 273.25 905.875H256V991.875ZM435.549 1088V888H501.924V905.875H455.424V978.5H499.424V996.375H455.424V1070.12H501.924V1088H435.549ZM626.428 1088V888H667.053L678.178 951.375L694.928 1070H705.553L703.053 958.75L701.928 888H721.928V1088H680.053L667.928 1016.25L653.803 905.75H642.803L645.053 1013.12L646.428 1088H626.428ZM871.785 1088V905.875H841.285V888H921.91V905.875H891.535V1088H871.785ZM1026.05 1088L1047.55 888H1088.43L1109.8 1088H1089.55L1084.43 1031.5H1051.43L1046.43 1088H1026.05ZM1053.18 1013.62H1082.8L1078.93 971.25L1073.43 905.875H1062.68L1057.05 971.375L1053.18 1013.62Z" fill="#F2922E"/>
</svg>
