<svg width="896" height="1085" viewBox="0 0 896 1085" fill="none" xmlns="http://www.w3.org/2000/svg">
<path d="M234 668H662L755.5 321L725.5 299.5L636 633.5H259.5L156.5 247L445 42.5L769 272L778 235.5L445 0L117 231.5L234 668Z" fill="#F2922E"/>
<path d="M209 268L215 289.5L445.5 127L655 276.5L577.234 567H312L247 325.5L226.5 332.5L295 589H594L680.5 267L445.5 101L209 268Z" fill="#F2922E"/>
<path d="M391.41 533V197H453.78C474.78 197 489.97 201.2 499.35 209.6C508.87 218 513.91 231.93 514.47 251.39C515.17 270.01 515.52 286.74 515.52 301.58C515.52 316.42 515.17 331.68 514.47 347.36C513.77 366.68 508.66 380.54 499.14 388.94C489.62 397.34 474.36 401.54 453.36 401.54H424.8V533H391.41ZM424.8 371.51H453.36C463.58 371.51 470.65 369.76 474.57 366.26C478.63 362.76 480.87 356.81 481.29 348.41C481.85 337.63 482.2 327.27 482.34 317.33C482.48 307.25 482.48 296.82 482.34 286.04C482.2 275.12 481.85 263.15 481.29 250.13C481.01 241.59 478.84 235.64 474.78 232.28C470.72 228.78 463.72 227.03 453.78 227.03H424.8V371.51Z" fill="#F2922E"/>
<path d="M15.125 905V705H52.25C64.75 705 73.7917 707.5 79.375 712.5C85.0417 717.5 88.0417 725.792 88.375 737.375C88.7917 748.458 89 758.417 89 767.25C89 776.083 88.7917 785.167 88.375 794.5C87.9583 806 84.9167 814.25 79.25 819.25C73.5833 824.25 64.5 826.75 52 826.75H35V905H15.125ZM35 808.875H52C58.0833 808.875 62.2917 807.833 64.625 805.75C67.0417 803.667 68.375 800.125 68.625 795.125C68.9583 788.708 69.1667 782.542 69.25 776.625C69.3333 770.625 69.3333 764.417 69.25 758C69.1667 751.5 68.9583 744.375 68.625 736.625C68.4583 731.542 67.1667 728 64.75 726C62.3333 723.917 58.1667 722.875 52.25 722.875H35V808.875ZM214.549 905V705H280.924V722.875H234.424V795.5H278.424V813.375H234.424V887.125H280.924V905H214.549ZM405.428 905V705H446.053L457.178 768.375L473.928 887H484.553L482.053 775.75L480.928 705H500.928V905H459.053L446.928 833.25L432.803 722.75H421.803L424.053 830.125L425.428 905H405.428ZM650.785 905V722.875H620.285V705H700.91V722.875H670.535V905H650.785ZM805.053 905L826.553 705H867.428L888.803 905H868.553L863.428 848.5H830.428L825.428 905H805.053ZM832.178 830.625H861.803L857.928 788.25L852.428 722.875H841.678L836.053 788.375L832.178 830.625Z" fill="#F2922E"/>
<path d="M38.5 1054.13C30.55 1054.13 24.7 1052.52 20.95 1049.32C17.25 1046.12 15.35 1040.82 15.25 1033.42C15.15 1026.07 15.075 1019.1 15.025 1012.5C14.975 1005.85 14.95 999.35 14.95 993C14.95 986.65 14.975 980.175 15.025 973.575C15.075 966.975 15.15 960 15.25 952.65C15.35 945.4 17.25 940.175 20.95 936.975C24.7 933.725 30.55 932.1 38.5 932.1C46.45 932.1 52.3 933.725 56.05 936.975C59.8 940.225 61.825 945.45 62.125 952.65C62.225 955.25 62.275 957.75 62.275 960.15C62.325 962.5 62.325 964.85 62.275 967.2C62.225 969.55 62.125 972.05 61.975 974.7H50.125C50.225 972 50.275 969.45 50.275 967.05C50.325 964.65 50.35 962.25 50.35 959.85C50.35 957.45 50.3 954.925 50.2 952.275C50.05 948.475 49.1 945.875 47.35 944.475C45.6 943.025 42.65 942.3 38.5 942.3C34.45 942.3 31.55 943.025 29.8 944.475C28.1 945.875 27.2 948.475 27.1 952.275C26.95 960.125 26.825 967.35 26.725 973.95C26.625 980.5 26.575 986.875 26.575 993.075C26.575 999.225 26.625 1005.6 26.725 1012.2C26.825 1018.75 26.95 1025.97 27.1 1033.87C27.2 1037.67 28.125 1040.3 29.875 1041.75C31.625 1043.2 34.5 1043.92 38.5 1043.92C42.9 1043.92 46 1043.2 47.8 1041.75C49.65 1040.3 50.65 1037.67 50.8 1033.87C50.9 1031.57 50.95 1029.32 50.95 1027.12C50.95 1024.87 50.925 1022.37 50.875 1019.62C50.825 1016.82 50.75 1013.52 50.65 1009.72H62.575C62.775 1014.52 62.875 1018.77 62.875 1022.47C62.925 1026.12 62.875 1029.77 62.725 1033.42C62.425 1040.82 60.375 1046.12 56.575 1049.32C52.825 1052.52 46.8 1054.13 38.5 1054.13ZM104.12 1054.05C95.9703 1054.05 90.0953 1052.4 86.4953 1049.1C82.8953 1045.75 81.0453 1040.27 80.9453 1032.67C80.8453 1025.07 80.7703 1018.05 80.7203 1011.6C80.6703 1005.1 80.6453 998.8 80.6453 992.7C80.6453 986.55 80.6703 980.3 80.7203 973.95C80.7703 967.55 80.8453 960.7 80.9453 953.4C81.0453 945.75 82.8953 940.275 86.4953 936.975C90.0953 933.625 95.9703 931.95 104.12 931.95C112.22 931.95 118.045 933.625 121.595 936.975C125.195 940.275 127.07 945.75 127.22 953.4C127.42 960.7 127.545 967.55 127.595 973.95C127.695 980.3 127.745 986.55 127.745 992.7C127.745 998.8 127.695 1005.1 127.595 1011.6C127.545 1018.05 127.42 1025.07 127.22 1032.67C127.07 1040.27 125.195 1045.75 121.595 1049.1C118.045 1052.4 112.22 1054.05 104.12 1054.05ZM104.12 1043.77C108.32 1043.77 111.22 1043.02 112.82 1041.52C114.47 1039.97 115.32 1037.15 115.37 1033.05C115.57 1025.35 115.72 1018.27 115.82 1011.82C115.92 1005.37 115.97 999.125 115.97 993.075C115.97 987.025 115.92 980.775 115.82 974.325C115.72 967.825 115.57 960.7 115.37 952.95C115.32 948.85 114.47 946.025 112.82 944.475C111.22 942.925 108.32 942.15 104.12 942.15C99.9203 942.15 96.9953 942.925 95.3453 944.475C93.7453 946.025 92.8953 948.85 92.7953 952.95C92.5953 960.5 92.4453 967.475 92.3453 973.875C92.2953 980.275 92.2703 986.5 92.2703 992.55C92.2703 998.6 92.2953 1004.9 92.3453 1011.45C92.4453 1017.95 92.5953 1025.15 92.7953 1033.05C92.8953 1037.15 93.7453 1039.97 95.3453 1041.52C96.9953 1043.02 99.9203 1043.77 104.12 1043.77ZM147.759 1053V933H172.134L178.809 971.025L188.859 1042.2H195.234L193.734 975.45L193.059 933H205.059V1053H179.934L172.659 1009.95L164.184 943.65H157.584L158.934 1008.07L159.759 1053H147.759ZM247.348 1054.05C239.298 1054.05 233.473 1052.45 229.873 1049.25C226.323 1046 224.423 1040.67 224.173 1033.27C224.123 1030.42 224.073 1027.77 224.023 1025.32C224.023 1022.82 224.048 1020.32 224.098 1017.82C224.148 1015.27 224.223 1012.52 224.323 1009.57H235.798C235.598 1014.02 235.473 1018.3 235.423 1022.4C235.423 1026.45 235.548 1030.57 235.798 1034.77C235.948 1038.12 236.873 1040.47 238.573 1041.82C240.323 1043.12 243.248 1043.77 247.348 1043.77C251.198 1043.77 253.948 1043.12 255.598 1041.82C257.298 1040.47 258.248 1038.12 258.448 1034.77C258.648 1032.62 258.748 1030.3 258.748 1027.8C258.798 1025.25 258.773 1022.72 258.673 1020.22C258.623 1017.72 258.548 1015.37 258.448 1013.17C258.348 1009.17 257.548 1006.17 256.048 1004.17C254.548 1002.17 252.098 1000.75 248.698 999.9L240.373 997.875C236.273 996.875 233.048 995.425 230.698 993.525C228.348 991.575 226.673 988.975 225.673 985.725C224.673 982.475 224.098 978.35 223.948 973.35C223.898 970.1 223.873 966.725 223.873 963.225C223.923 959.675 223.973 956.1 224.023 952.5C224.173 947.55 225.048 943.575 226.648 940.575C228.248 937.575 230.723 935.4 234.073 934.05C237.473 932.65 241.898 931.95 247.348 931.95C255.148 931.95 260.798 933.55 264.298 936.75C267.798 939.95 269.673 945.25 269.923 952.65C270.023 955.75 270.048 959.175 269.998 962.925C269.948 966.625 269.873 970.525 269.773 974.625H258.223C258.373 970.025 258.448 965.85 258.448 962.1C258.498 958.35 258.448 954.7 258.298 951.15C258.148 947.8 257.248 945.475 255.598 944.175C253.948 942.825 251.148 942.15 247.198 942.15C243.248 942.15 240.423 942.825 238.723 944.175C237.073 945.475 236.148 947.8 235.948 951.15C235.748 954.95 235.648 958.625 235.648 962.175C235.648 965.725 235.748 969.45 235.948 973.35C236.048 977.65 236.648 980.825 237.748 982.875C238.848 984.875 240.748 986.2 243.448 986.85L251.323 988.65C256.023 989.75 259.723 991.275 262.423 993.225C265.173 995.175 267.148 997.775 268.348 1001.02C269.598 1004.27 270.298 1008.32 270.448 1013.17C270.548 1015.27 270.598 1017.5 270.598 1019.85C270.598 1022.15 270.573 1024.45 270.523 1026.75C270.473 1029.05 270.423 1031.22 270.373 1033.27C270.073 1040.67 268.148 1046 264.598 1049.25C261.098 1052.45 255.348 1054.05 247.348 1054.05ZM299.678 1053V943.725H281.378V933H329.753V943.725H311.528V1053H299.678ZM342.94 1053V933H365.515C373.015 933 378.465 934.5 381.865 937.5C385.265 940.5 387.065 945.475 387.265 952.425C387.465 957.125 387.59 961.425 387.64 965.325C387.69 969.225 387.69 972.975 387.64 976.575C387.59 980.125 387.465 983.85 387.265 987.75C387.065 992.4 386.165 996.15 384.565 999C383.015 1001.8 380.615 1003.85 377.365 1005.15L389.59 1053H377.065L366.04 1007.1H354.865V1053H342.94ZM354.865 996.375H365.44C369.04 996.375 371.565 995.775 373.015 994.575C374.465 993.325 375.265 991.2 375.415 988.2C375.565 983.65 375.665 979.5 375.715 975.75C375.765 971.95 375.765 968.175 375.715 964.425C375.715 960.625 375.615 956.475 375.415 951.975C375.265 948.925 374.465 946.8 373.015 945.6C371.565 944.35 369.065 943.725 365.515 943.725H354.865V996.375ZM428.56 1054.05C420.41 1054.05 414.56 1052.45 411.01 1049.25C407.51 1046.05 405.685 1040.85 405.535 1033.65C405.335 1016.75 405.235 999.975 405.235 983.325C405.235 966.675 405.335 949.9 405.535 933H417.46C417.36 944.25 417.285 955.525 417.235 966.825C417.185 978.125 417.185 989.425 417.235 1000.72C417.285 1012.02 417.31 1023.3 417.31 1034.55C417.31 1037.85 418.135 1040.2 419.785 1041.6C421.485 1042.95 424.41 1043.62 428.56 1043.62C432.66 1043.62 435.535 1042.95 437.185 1041.6C438.835 1040.2 439.66 1037.85 439.66 1034.55C439.71 1023.3 439.76 1012.02 439.81 1000.72C439.86 989.425 439.885 978.125 439.885 966.825C439.885 955.525 439.81 944.25 439.66 933H451.51C451.71 949.9 451.81 966.675 451.81 983.325C451.86 999.975 451.76 1016.75 451.51 1033.65C451.46 1040.85 449.635 1046.05 446.035 1049.25C442.485 1052.45 436.66 1054.05 428.56 1054.05ZM493.973 1054.13C486.023 1054.13 480.173 1052.52 476.423 1049.32C472.723 1046.12 470.823 1040.82 470.723 1033.42C470.623 1026.07 470.548 1019.1 470.498 1012.5C470.448 1005.85 470.423 999.35 470.423 993C470.423 986.65 470.448 980.175 470.498 973.575C470.548 966.975 470.623 960 470.723 952.65C470.823 945.4 472.723 940.175 476.423 936.975C480.173 933.725 486.023 932.1 493.973 932.1C501.923 932.1 507.773 933.725 511.523 936.975C515.273 940.225 517.298 945.45 517.598 952.65C517.698 955.25 517.748 957.75 517.748 960.15C517.798 962.5 517.798 964.85 517.748 967.2C517.698 969.55 517.598 972.05 517.448 974.7H505.598C505.698 972 505.748 969.45 505.748 967.05C505.798 964.65 505.823 962.25 505.823 959.85C505.823 957.45 505.773 954.925 505.673 952.275C505.523 948.475 504.573 945.875 502.823 944.475C501.073 943.025 498.123 942.3 493.973 942.3C489.923 942.3 487.023 943.025 485.273 944.475C483.573 945.875 482.673 948.475 482.573 952.275C482.423 960.125 482.298 967.35 482.198 973.95C482.098 980.5 482.048 986.875 482.048 993.075C482.048 999.225 482.098 1005.6 482.198 1012.2C482.298 1018.75 482.423 1025.97 482.573 1033.87C482.673 1037.67 483.598 1040.3 485.348 1041.75C487.098 1043.2 489.973 1043.92 493.973 1043.92C498.373 1043.92 501.473 1043.2 503.273 1041.75C505.123 1040.3 506.123 1037.67 506.273 1033.87C506.373 1031.57 506.423 1029.32 506.423 1027.12C506.423 1024.87 506.398 1022.37 506.348 1019.62C506.298 1016.82 506.223 1013.52 506.123 1009.72H518.048C518.248 1014.52 518.348 1018.77 518.348 1022.47C518.398 1026.12 518.348 1029.77 518.198 1033.42C517.898 1040.82 515.848 1046.12 512.048 1049.32C508.298 1052.52 502.273 1054.13 493.973 1054.13ZM559.668 1054.13C551.718 1054.13 545.868 1052.52 542.118 1049.32C538.418 1046.12 536.518 1040.82 536.418 1033.42C536.318 1026.07 536.243 1019.1 536.193 1012.5C536.143 1005.85 536.118 999.35 536.118 993C536.118 986.65 536.143 980.175 536.193 973.575C536.243 966.975 536.318 960 536.418 952.65C536.518 945.4 538.418 940.175 542.118 936.975C545.868 933.725 551.718 932.1 559.668 932.1C567.618 932.1 573.468 933.725 577.218 936.975C580.968 940.225 582.993 945.45 583.293 952.65C583.393 955.25 583.443 957.75 583.443 960.15C583.493 962.5 583.493 964.85 583.443 967.2C583.393 969.55 583.293 972.05 583.143 974.7H571.293C571.393 972 571.443 969.45 571.443 967.05C571.493 964.65 571.518 962.25 571.518 959.85C571.518 957.45 571.468 954.925 571.368 952.275C571.218 948.475 570.268 945.875 568.518 944.475C566.768 943.025 563.818 942.3 559.668 942.3C555.618 942.3 552.718 943.025 550.968 944.475C549.268 945.875 548.368 948.475 548.268 952.275C548.118 960.125 547.993 967.35 547.893 973.95C547.793 980.5 547.743 986.875 547.743 993.075C547.743 999.225 547.793 1005.6 547.893 1012.2C547.993 1018.75 548.118 1025.97 548.268 1033.87C548.368 1037.67 549.293 1040.3 551.043 1041.75C552.793 1043.2 555.668 1043.92 559.668 1043.92C564.068 1043.92 567.168 1043.2 568.968 1041.75C570.818 1040.3 571.818 1037.67 571.968 1033.87C572.068 1031.57 572.118 1029.32 572.118 1027.12C572.118 1024.87 572.093 1022.37 572.043 1019.62C571.993 1016.82 571.918 1013.52 571.818 1009.72H583.743C583.943 1014.52 584.043 1018.77 584.043 1022.47C584.093 1026.12 584.043 1029.77 583.893 1033.42C583.593 1040.82 581.543 1046.12 577.743 1049.32C573.993 1052.52 567.968 1054.13 559.668 1054.13ZM602.938 1053V933H614.863V1053H602.938ZM658.318 1054.05C650.168 1054.05 644.293 1052.4 640.693 1049.1C637.093 1045.75 635.243 1040.27 635.143 1032.67C635.043 1025.07 634.968 1018.05 634.918 1011.6C634.868 1005.1 634.843 998.8 634.843 992.7C634.843 986.55 634.868 980.3 634.918 973.95C634.968 967.55 635.043 960.7 635.143 953.4C635.243 945.75 637.093 940.275 640.693 936.975C644.293 933.625 650.168 931.95 658.318 931.95C666.418 931.95 672.243 933.625 675.793 936.975C679.393 940.275 681.268 945.75 681.418 953.4C681.618 960.7 681.743 967.55 681.793 973.95C681.893 980.3 681.943 986.55 681.943 992.7C681.943 998.8 681.893 1005.1 681.793 1011.6C681.743 1018.05 681.618 1025.07 681.418 1032.67C681.268 1040.27 679.393 1045.75 675.793 1049.1C672.243 1052.4 666.418 1054.05 658.318 1054.05ZM658.318 1043.77C662.518 1043.77 665.418 1043.02 667.018 1041.52C668.668 1039.97 669.518 1037.15 669.568 1033.05C669.768 1025.35 669.918 1018.27 670.018 1011.82C670.118 1005.37 670.168 999.125 670.168 993.075C670.168 987.025 670.118 980.775 670.018 974.325C669.918 967.825 669.768 960.7 669.568 952.95C669.518 948.85 668.668 946.025 667.018 944.475C665.418 942.925 662.518 942.15 658.318 942.15C654.118 942.15 651.193 942.925 649.543 944.475C647.943 946.025 647.093 948.85 646.993 952.95C646.793 960.5 646.643 967.475 646.543 973.875C646.493 980.275 646.468 986.5 646.468 992.55C646.468 998.6 646.493 1004.9 646.543 1011.45C646.643 1017.95 646.793 1025.15 646.993 1033.05C647.093 1037.15 647.943 1039.97 649.543 1041.52C651.193 1043.02 654.118 1043.77 658.318 1043.77ZM701.956 1053V933H726.331L733.006 971.025L743.056 1042.2H749.431L747.931 975.45L747.256 933H759.256V1053H734.131L726.856 1009.95L718.381 943.65H711.781L713.131 1008.07L713.956 1053H701.956ZM780.395 1053V933H820.22V943.725H792.32V987.3H818.72V998.025H792.32V1042.27H820.22V1053H780.395ZM857.573 1054.05C849.523 1054.05 843.698 1052.45 840.098 1049.25C836.548 1046 834.648 1040.67 834.398 1033.27C834.348 1030.42 834.298 1027.77 834.248 1025.32C834.248 1022.82 834.273 1020.32 834.323 1017.82C834.373 1015.27 834.448 1012.52 834.548 1009.57H846.023C845.823 1014.02 845.698 1018.3 845.648 1022.4C845.648 1026.45 845.773 1030.57 846.023 1034.77C846.173 1038.12 847.098 1040.47 848.798 1041.82C850.548 1043.12 853.473 1043.77 857.573 1043.77C861.423 1043.77 864.173 1043.12 865.823 1041.82C867.523 1040.47 868.473 1038.12 868.673 1034.77C868.873 1032.62 868.973 1030.3 868.973 1027.8C869.023 1025.25 868.998 1022.72 868.898 1020.22C868.848 1017.72 868.773 1015.37 868.673 1013.17C868.573 1009.17 867.773 1006.17 866.273 1004.17C864.773 1002.17 862.323 1000.75 858.923 999.9L850.598 997.875C846.498 996.875 843.273 995.425 840.923 993.525C838.573 991.575 836.898 988.975 835.898 985.725C834.898 982.475 834.323 978.35 834.173 973.35C834.123 970.1 834.098 966.725 834.098 963.225C834.148 959.675 834.198 956.1 834.248 952.5C834.398 947.55 835.273 943.575 836.873 940.575C838.473 937.575 840.948 935.4 844.298 934.05C847.698 932.65 852.123 931.95 857.573 931.95C865.373 931.95 871.023 933.55 874.523 936.75C878.023 939.95 879.898 945.25 880.148 952.65C880.248 955.75 880.273 959.175 880.223 962.925C880.173 966.625 880.098 970.525 879.998 974.625H868.448C868.598 970.025 868.673 965.85 868.673 962.1C868.723 958.35 868.673 954.7 868.523 951.15C868.373 947.8 867.473 945.475 865.823 944.175C864.173 942.825 861.373 942.15 857.423 942.15C853.473 942.15 850.648 942.825 848.948 944.175C847.298 945.475 846.373 947.8 846.173 951.15C845.973 954.95 845.873 958.625 845.873 962.175C845.873 965.725 845.973 969.45 846.173 973.35C846.273 977.65 846.873 980.825 847.973 982.875C849.073 984.875 850.973 986.2 853.673 986.85L861.548 988.65C866.248 989.75 869.948 991.275 872.648 993.225C875.398 995.175 877.373 997.775 878.573 1001.02C879.823 1004.27 880.523 1008.32 880.673 1013.17C880.773 1015.27 880.823 1017.5 880.823 1019.85C880.823 1022.15 880.798 1024.45 880.748 1026.75C880.698 1029.05 880.648 1031.22 880.598 1033.27C880.298 1040.67 878.373 1046 874.823 1049.25C871.323 1052.45 865.573 1054.05 857.573 1054.05Z" fill="#76777A"/>
</svg>
